<svg width="338" height="275" viewBox="0 0 338 275" fill="none" xmlns="http://www.w3.org/2000/svg">
<g opacity="0.8">
<path d="M23.5588 162.144C13.2583 138.454 14.0449 110.305 23.6235 86.3156C33.8253 60.769 54.9974 40.8503 78.6836 26.8649C120.394 2.23585 172.019 -5.77509 218.754 6.96231C230.814 10.2486 242.677 14.9445 252.609 22.5406C262.538 30.1349 270.432 40.8808 272.828 53.1495C274.486 61.6453 273.483 70.4518 274.633 79.032C279.192 113.087 311.162 128.942 310.735 163.299C310.469 184.767 295.805 199.796 275.274 213.144C257.269 224.845 72.3876 274.453 23.5588 162.144Z" fill="#F3FAFF"/>
<path d="M169 274.618C262.336 274.618 338 270.435 338 265.275C338 260.115 262.336 255.932 169 255.932C75.6639 255.932 0 260.115 0 265.275C0 270.435 75.6639 274.618 169 274.618Z" fill="#E9ECF2"/>
<path d="M44.2551 154.972C44.2785 155.164 44.3 155.352 44.3234 155.545C47.0619 179.046 52.1332 196.933 58.2765 210.553L71.4323 216.286L61.2898 216.202H61.0007C68.6669 231.035 77.5811 240.039 85.5597 245.5C90.5232 248.908 95.1258 250.941 98.8358 252.152C99.08 252.232 99.3207 252.31 99.5595 252.383C100.156 252.57 100.73 252.73 101.276 252.874L107.96 252.249C108.005 251.927 108.048 251.609 108.084 251.288C108.113 251.085 108.136 250.884 108.156 250.683C108.194 250.419 108.221 250.151 108.247 249.887C111.665 218.533 98.2594 195.885 82.8409 180.599C82.7978 180.545 82.7457 180.499 82.69 180.446C77.3279 175.144 71.7197 170.728 66.503 167.149L64.664 175.045L62.7121 164.645C53.6973 158.906 46.4513 155.848 44.6789 155.135C44.397 155.026 44.2551 154.972 44.2551 154.972Z" fill="#9AADE5"/>
<path d="M44.0359 155.115L44.3215 155.544L62.1175 182.072L62.4372 182.54L67.2875 189.774L67.4528 190.014L82.9216 213.072L82.9449 213.104L108.152 250.683L108.533 251.246L109.133 252.139L109.716 252.083L109.12 251.191L108.244 249.887L83.3669 212.803L82.9036 212.117L44.6734 155.137L44.4633 154.824L44.0359 155.115Z" fill="white"/>
<path d="M67.2991 190.25L67.4983 189.846L48.9123 180.693L48.7132 181.097L67.2991 190.25Z" fill="white"/>
<path d="M62.3472 182.648L62.5464 182.244L47.9766 175.069L47.7775 175.473L62.3472 182.648Z" fill="white"/>
<path d="M83.3725 213.134L82.8369 180.477L82.3862 180.485L82.9218 213.141L83.3725 213.134Z" fill="white"/>
<path d="M111.381 257.04C111.381 257.04 96.7472 266.769 72.4271 256.706L79.1757 252.202L67.4061 254.411C57.7826 249.582 46.8374 241.675 34.8398 229.123L37.4168 227.406L33.8486 228.074C31.8212 225.924 29.7632 223.642 27.6765 221.216C27.6765 221.216 34.1593 219.671 43.7092 219.382L49.4844 225.204L47.2307 219.343C66.8585 219.445 96.2839 225.414 111.381 257.04Z" fill="#BAC8F3"/>
<path d="M112.423 255.172L27.7415 220.991L27.5512 221.463L112.233 255.644L112.423 255.172Z" fill="white"/>
<path d="M38.8052 233.315L49.8054 230.53L49.6895 230.072L38.6892 232.858L38.8052 233.315Z" fill="white"/>
<path d="M42.9626 236.959L55.6479 232.732L55.4987 232.284L42.8133 236.511L42.9626 236.959Z" fill="white"/>
<path d="M88.8063 231.055L89.1349 230.557C81.7363 225.696 73.1005 222.326 63.4679 220.535L63.3584 221.122C72.9119 222.895 81.4741 226.237 88.8063 231.055Z" fill="#2E4882"/>
<path d="M205.444 56.3479V260.024C205.444 262.867 203.141 265.176 200.291 265.176H100.177C97.3345 265.176 95.0251 262.869 95.0251 260.024V56.3479C95.0251 53.498 97.3327 51.1958 100.177 51.1958H200.291C203.141 51.1958 205.444 53.498 205.444 56.3479Z" fill="#446BD0"/>
<path d="M212.032 56.3479V260.024C212.032 262.867 209.732 265.176 206.882 265.176H106.766C103.921 265.176 101.614 262.869 101.614 260.024V56.3479C101.614 53.498 103.921 51.1958 106.766 51.1958H206.882C209.732 51.1958 212.032 53.498 212.032 56.3479Z" fill="#A2C3F2"/>
<path d="M204.448 77.4679V238.906C204.448 242.194 201.954 244.859 198.876 244.859H114.768C111.691 244.859 109.195 242.194 109.195 238.906V77.4679C109.195 74.1798 111.69 71.5149 114.768 71.5149H198.876C201.956 71.5149 204.448 74.1798 204.448 77.4679Z" fill="#E1EAFF"/>
<path d="M170.735 61.0132H142.911C142.638 61.0132 142.415 60.7905 142.415 60.5176C142.415 60.2446 142.638 60.0201 142.911 60.0201H170.735C171.009 60.0201 171.23 60.2428 171.23 60.5176C171.23 60.7923 171.009 61.0132 170.735 61.0132Z" fill="#2E4882"/>
<path d="M199.952 246.051H113.692C109.883 246.051 106.786 242.846 106.786 238.906V77.4679C106.786 73.528 109.883 70.3225 113.692 70.3225H199.952C203.761 70.3225 206.859 73.528 206.859 77.4679V238.906C206.859 242.844 203.761 246.051 199.952 246.051ZM113.694 72.7073C111.2 72.7073 109.172 74.8425 109.172 77.4679V238.906C109.172 241.53 111.2 243.667 113.694 243.667H199.954C202.448 243.667 204.477 241.531 204.477 238.906V77.4679C204.477 74.8425 202.448 72.7073 199.954 72.7073H113.694Z" fill="white"/>
<path d="M212.483 56.3478V230.845H211.587V56.3478C211.587 53.7565 209.473 51.6429 206.882 51.6429H106.766C104.174 51.6429 102.061 53.7565 102.061 56.3478V196.283H101.165V56.3478C101.165 53.2609 103.679 50.7468 106.766 50.7468H206.882C209.967 50.7468 212.483 53.2609 212.483 56.3478Z" fill="#2E4882"/>
<path d="M118.278 265.623H106.766C103.679 265.623 101.167 263.111 101.167 260.024V236.469H102.061V260.024C102.061 262.617 104.171 264.729 106.766 264.729H118.278V265.623Z" fill="#2E4882"/>
<path d="M175.08 264.729H131.057V265.623H175.08V264.729Z" fill="#2E4882"/>
<path d="M249.074 262.089C249.074 263.628 237.775 264.88 223.841 264.88C209.908 264.88 198.611 263.628 198.611 262.089C198.611 262.059 198.616 262.035 198.621 262.007V254.464H249.056V261.989C249.068 262.025 249.074 262.053 249.074 262.089Z" fill="#F49B51"/>
<path d="M223.841 257.322C237.776 257.322 249.072 256.073 249.072 254.533C249.072 252.992 237.776 251.744 223.841 251.744C209.907 251.744 198.611 252.992 198.611 254.533C198.611 256.073 209.907 257.322 223.841 257.322Z" fill="#FCC659"/>
<path d="M255.035 252.99C255.035 254.527 243.736 255.781 229.803 255.781C215.87 255.781 204.571 254.529 204.571 252.99C204.571 252.96 204.578 252.936 204.583 252.907V245.365H255.017V252.89C255.028 252.924 255.035 252.954 255.035 252.99Z" fill="#F49B51"/>
<path d="M229.801 248.224C243.736 248.224 255.032 246.975 255.032 245.433C255.032 243.892 243.736 242.643 229.801 242.643C215.867 242.643 204.571 243.892 204.571 245.433C204.571 246.975 215.867 248.224 229.801 248.224Z" fill="#FCC659"/>
<path d="M249.074 243.889C249.074 245.426 237.775 246.68 223.841 246.68C209.908 246.68 198.611 245.428 198.611 243.889C198.611 243.859 198.616 243.835 198.621 243.807V236.264H249.056V243.789C249.068 243.824 249.074 243.853 249.074 243.889Z" fill="#F49B51"/>
<path d="M223.841 239.123C237.776 239.123 249.072 237.874 249.072 236.333C249.072 234.791 237.776 233.542 223.841 233.542C209.907 233.542 198.611 234.791 198.611 236.333C198.611 237.874 209.907 239.123 223.841 239.123Z" fill="#FCC659"/>
<path d="M223.845 265.176C213.582 265.176 198.314 264.354 198.314 262.088H198.911C198.911 262.957 207.475 264.58 223.845 264.58C224.439 264.58 225.03 264.578 225.614 264.573L225.619 265.169C225.034 265.173 224.441 265.176 223.845 265.176Z" fill="#2E4882"/>
<path d="M233.847 264.946L233.819 264.352C236.374 264.23 238.716 264.061 240.781 263.855L240.84 264.447C238.768 264.655 236.413 264.824 233.847 264.946Z" fill="#2E4882"/>
<path d="M213.886 255.406C204.404 254.544 204.404 253.348 204.404 252.954H205C205 253.245 206.607 254.145 213.94 254.813L213.886 255.406Z" fill="#2E4882"/>
<path d="M229.934 256.041C227.097 256.041 224.312 255.989 221.654 255.889L221.679 255.292C226.425 255.476 231.673 255.495 236.562 255.348L236.58 255.944C234.415 256.009 232.179 256.041 229.934 256.041Z" fill="#2E4882"/>
<path d="M242.842 255.65L242.803 255.054C245.495 254.876 247.842 254.648 249.778 254.375L249.862 254.966C247.908 255.242 245.547 255.472 242.842 255.65Z" fill="#2E4882"/>
<path d="M206.876 238.71C198.467 237.852 198.467 236.769 198.467 236.361H199.063C199.063 236.37 199.277 237.335 206.937 238.118L206.876 238.71Z" fill="#2E4882"/>
<path d="M223.996 239.45C221.095 239.45 218.26 239.396 215.566 239.29L215.59 238.694C218.276 238.8 221.104 238.854 223.997 238.854C229.176 238.854 234.149 238.681 238.38 238.356L238.425 238.951C234.178 239.278 229.191 239.45 223.996 239.45Z" fill="#2E4882"/>
<path d="M258.017 234.79C258.017 236.327 246.718 237.581 232.784 237.581C218.851 237.581 207.552 236.327 207.552 234.79C207.552 234.759 207.559 234.736 207.564 234.707V227.165H257.997V234.689C258.009 234.724 258.017 234.754 258.017 234.79Z" fill="#F49B51"/>
<path d="M232.784 230.022C246.719 230.022 258.015 228.774 258.015 227.233C258.015 225.693 246.719 224.445 232.784 224.445C218.85 224.445 207.554 225.693 207.554 227.233C207.554 228.774 218.85 230.022 232.784 230.022Z" fill="#FCC659"/>
<path d="M232.784 229.11C244.134 229.11 253.335 228.27 253.335 227.233C253.335 226.197 244.134 225.357 232.784 225.357C221.434 225.357 212.233 226.197 212.233 227.233C212.233 228.27 221.434 229.11 232.784 229.11Z" fill="#F49B51"/>
<g opacity="0.38">
<path d="M211.914 135.9V208.34H148.819C146.361 208.34 144.351 206.645 144.351 204.564V139.67C144.351 137.596 146.363 135.899 148.819 135.899H211.914V135.9Z" fill="#A3B2CE"/>
</g>
<path d="M165.637 8.14205C151.568 8.53891 140.487 20.2653 140.882 34.3406C141.277 48.4086 153.005 59.4957 167.08 59.0953C181.148 58.6984 192.235 46.9702 191.835 32.8968C191.438 18.8269 179.71 7.74518 165.637 8.14205ZM186.866 33.0368C187.021 38.5121 185.033 43.7235 181.265 47.7047C177.503 51.6877 172.419 53.9683 166.937 54.1246C155.634 54.4424 146.172 45.5049 145.854 34.1969C145.7 28.7216 147.682 23.5103 151.45 19.529C155.079 15.6879 159.948 13.4288 165.207 13.1361C165.399 13.1253 165.586 13.1199 165.778 13.1146C176.9 12.7967 186.229 21.4398 186.841 32.4766C186.85 32.6651 186.861 32.8501 186.866 33.0368Z" fill="#FCC659"/>
<path d="M186.841 32.4784C186.852 32.6651 186.863 32.8519 186.868 33.0386C187.022 38.5158 185.034 43.7253 181.267 47.7083C177.507 51.6913 172.421 53.972 166.938 54.1264C155.634 54.4443 146.174 45.5085 145.856 34.1987C145.702 28.7216 147.684 23.5121 151.452 19.5309C155.081 15.6879 159.949 13.4306 165.209 13.1379C165.401 13.1271 165.588 13.1218 165.78 13.1164C176.901 12.7967 186.229 21.4416 186.841 32.4784Z" fill="#F49B51"/>
<path d="M165.933 49.355L165.719 45.5012C163.505 45.5856 161.176 45.0254 159.788 44.1472L160.562 41.5398C161.986 42.3802 164.009 42.9944 166.148 42.8758C168.858 42.725 170.602 41.0585 170.482 38.8838C170.365 36.7846 168.804 35.5706 165.917 34.5812C161.939 33.2703 159.437 31.6487 159.254 28.3283C159.078 25.1624 161.197 22.6321 164.676 21.8653L164.462 18.0116L166.827 17.8805L167.034 21.5834C169.327 21.5331 170.925 22.0557 172.069 22.6429L171.254 25.2144C170.428 24.8014 168.817 24.049 166.375 24.1836C163.437 24.3471 162.427 26.1644 162.512 27.6908C162.621 29.6751 164.089 30.5892 167.484 31.778C171.503 33.1625 173.599 35.0373 173.786 38.4331C173.955 41.4482 172.011 44.3879 168.118 45.2552L168.339 49.2221L165.933 49.355Z" fill="#FCC659"/>
<path d="M185.715 27.4017C185.663 27.2383 185.605 27.0731 185.55 26.9115C183.612 21.3859 179.397 16.9844 173.974 14.8008L174.181 14.2836C179.755 16.5265 184.086 21.0501 186.061 26.6942C186.132 26.8953 186.191 27.0623 186.246 27.2311L185.715 27.4017Z" fill="#2E4882"/>
<path d="M173.974 14.8025C169.612 13.0462 164.746 12.8703 160.273 14.3033L160.102 13.7753C164.701 12.301 169.699 12.4842 174.181 14.2871L173.974 14.8025Z" fill="#2E4882"/>
<path d="M184.921 43.0932L184.429 42.8381C185.663 40.4462 186.399 37.8926 186.62 35.2474L187.173 35.2941C186.947 38.0111 186.189 40.6348 184.921 43.0932Z" fill="#2E4882"/>
<path d="M181.87 13.7736C179.809 12.1592 177.521 10.8824 175.075 9.97912L175.281 9.41882C177.787 10.3454 180.126 11.6528 182.236 13.3049L181.87 13.7736Z" fill="#2E4882"/>
<path d="M181.908 54.1909L181.549 53.715C188.033 48.8054 191.767 41.0279 191.538 32.9074C191.395 27.8613 189.771 23.0361 186.839 18.9525L187.326 18.6041C190.326 22.7847 191.989 27.7248 192.136 32.8913C192.368 41.2021 188.545 49.1646 181.908 54.1909Z" fill="#2E4882"/>
<path d="M98.967 93.4934C87.3914 96.187 80.194 107.757 82.8912 119.338C85.5867 130.912 97.1568 138.115 108.736 135.414C120.31 132.718 127.513 121.148 124.812 109.569C122.116 97.9953 110.546 90.7979 98.967 93.4934ZM120.723 110.523C121.771 115.028 121.003 119.674 118.557 123.603C116.115 127.532 112.292 130.276 107.782 131.325C98.4821 133.491 89.1513 127.687 86.9838 118.383C85.935 113.877 86.6983 109.233 89.1459 105.302C91.5037 101.513 95.1509 98.825 99.4536 97.699C99.6098 97.6577 99.7643 97.6236 99.9223 97.5859C109.072 95.4507 118.245 101.034 120.608 110.065C120.647 110.217 120.687 110.37 120.723 110.523Z" fill="#FCC659"/>
<path d="M120.608 110.065C120.647 110.216 120.687 110.368 120.723 110.523C121.772 115.028 121.003 119.674 118.557 123.603C116.115 127.532 112.29 130.274 107.781 131.325C98.4804 133.491 89.1478 127.687 86.9821 118.381C85.9333 113.875 86.6966 109.231 89.1442 105.301C91.502 101.511 95.1492 98.8232 99.4519 97.6954C99.6081 97.6559 99.7626 97.62 99.9206 97.5823C109.072 95.4507 118.243 101.036 120.608 110.065Z" fill="#F49B51"/>
<path d="M106.147 127.548L105.322 124.395C103.503 124.839 101.483 124.767 100.186 124.271L100.389 121.983C101.709 122.438 103.487 122.606 105.236 122.149C107.452 121.568 108.616 119.897 108.151 118.117C107.702 116.398 106.206 115.657 103.65 115.325C100.138 114.91 97.7963 113.989 97.0851 111.272C96.4063 108.68 97.7334 106.231 100.483 105.011L99.6584 101.858L101.594 101.352L102.386 104.379C104.275 103.952 105.687 104.117 106.73 104.41L106.49 106.674C105.737 106.471 104.277 106.119 102.278 106.644C99.8758 107.272 99.346 108.946 99.6729 110.194C100.098 111.817 101.465 112.327 104.475 112.739C108.034 113.209 110.083 114.407 110.81 117.185C111.455 119.652 110.343 122.411 107.267 123.784L108.118 127.031L106.147 127.548Z" fill="#FCC659"/>
<path d="M118.823 106.053C118.751 105.925 118.677 105.8 118.602 105.676C116.07 101.429 111.841 98.4964 106.985 97.6021L107.07 97.1406C112.058 98.0582 116.402 101.071 118.99 105.41C119.081 105.565 119.159 105.694 119.232 105.823L118.823 106.053Z" fill="#2E4882"/>
<path d="M106.985 97.6021C103.081 96.8838 99.0245 97.5572 95.5641 99.4949L95.3342 99.0855C98.8899 97.0921 103.058 96.4026 107.07 97.1406L106.985 97.6021Z" fill="#2E4882"/>
<path d="M120.807 119.169L120.356 119.042C120.974 116.855 121.154 114.617 120.891 112.392L121.358 112.338C121.626 114.624 121.441 116.923 120.807 119.169Z" fill="#2E4882"/>
<path d="M113.347 95.4239C111.368 94.4344 109.262 93.7628 107.085 93.427L107.163 92.9296C109.391 93.2744 111.548 93.9621 113.572 94.9732L113.347 95.4239Z" fill="#2E4882"/>
<path d="M120.178 128.861L119.801 128.527C124.341 123.373 126.123 116.309 124.566 109.628C123.598 105.477 121.443 101.758 118.329 98.8717L118.67 98.5018C121.856 101.458 124.065 105.265 125.054 109.514C126.649 116.354 124.826 123.585 120.178 128.861Z" fill="#2E4882"/>
<path d="M153.686 202.778H254.516C256.592 202.778 258.293 201.08 258.293 199.004V134.11C258.293 132.034 256.594 130.335 254.516 130.335H153.686C151.61 130.335 149.911 132.034 149.911 134.11V199.004C149.913 201.08 151.61 202.778 153.686 202.778Z" fill="#6D92F0"/>
<path d="M177.189 180.146H159.037C158.475 180.146 158.015 179.687 158.015 179.125V175.635C158.015 175.073 158.475 174.614 159.037 174.614H177.189C177.751 174.614 178.21 175.073 178.21 175.635V179.125C178.21 179.687 177.751 180.146 177.189 180.146Z" fill="white"/>
<path d="M201.182 180.146H183.03C182.468 180.146 182.009 179.687 182.009 179.125V175.635C182.009 175.073 182.468 174.614 183.03 174.614H201.182C201.744 174.614 202.202 175.073 202.202 175.635V179.125C202.202 179.687 201.742 180.146 201.182 180.146Z" fill="white"/>
<path d="M225.173 180.146H207.022C206.46 180.146 206.002 179.687 206.002 179.125V175.635C206.002 175.073 206.461 174.614 207.022 174.614H225.173C225.735 174.614 226.195 175.073 226.195 175.635V179.125C226.197 179.687 225.737 180.146 225.173 180.146Z" fill="white"/>
<path d="M249.169 180.146H231.017C230.455 180.146 229.995 179.687 229.995 179.125V175.635C229.995 175.073 230.455 174.614 231.017 174.614H249.169C249.731 174.614 250.19 175.073 250.19 175.635V179.125C250.19 179.687 249.729 180.146 249.169 180.146Z" fill="white"/>
<path d="M248.946 190.971H225.066C224.382 190.971 223.823 190.411 223.823 189.729V186.683C223.823 185.999 224.383 185.439 225.066 185.439H248.946C249.632 185.439 250.19 185.999 250.19 186.683V189.729C250.19 190.411 249.63 190.971 248.946 190.971Z" fill="white"/>
<path d="M162.622 151.714V144.448C162.622 142.861 163.913 141.568 165.502 141.568H179.619C181.206 141.568 182.499 142.861 182.499 144.448V151.714C182.499 153.301 181.206 154.594 179.619 154.594H165.502C163.913 154.594 162.622 153.303 162.622 151.714ZM165.502 142.342C164.34 142.342 163.396 143.286 163.396 144.448V151.714C163.396 152.876 164.34 153.822 165.502 153.822H179.619C180.779 153.822 181.725 152.876 181.725 151.714V144.448C181.725 143.286 180.78 142.342 179.619 142.342H165.502Z" fill="white"/>
<path d="M246.841 147.074C246.841 146.984 246.877 146.894 246.945 146.826C250.12 143.651 250.12 138.486 246.945 135.311C246.809 135.175 246.809 134.952 246.945 134.816C247.081 134.679 247.302 134.679 247.439 134.816C250.885 138.264 250.887 143.872 247.439 147.32C247.302 147.456 247.081 147.456 246.945 147.32C246.875 147.251 246.841 147.163 246.841 147.074Z" fill="white"/>
<path d="M245.089 137.066C245.089 136.976 245.125 136.886 245.193 136.818C245.329 136.682 245.55 136.682 245.687 136.818C248.032 139.161 248.032 142.974 245.687 145.317C245.55 145.454 245.329 145.454 245.193 145.317C245.056 145.181 245.056 144.958 245.193 144.822C247.263 142.751 247.263 139.382 245.193 137.312C245.125 137.245 245.089 137.156 245.089 137.066Z" fill="white"/>
<path d="M243.409 143.215C243.409 143.125 243.445 143.035 243.514 142.967C244.56 141.92 244.559 140.219 243.514 139.172C243.377 139.036 243.377 138.815 243.514 138.678C243.65 138.542 243.871 138.542 244.007 138.678C245.326 139.997 245.326 142.144 244.007 143.464C243.871 143.601 243.65 143.601 243.514 143.464C243.444 143.394 243.409 143.304 243.409 143.215Z" fill="white"/>
<path d="M258.668 148.069H257.914V133.71C257.914 131.837 256.39 130.312 254.517 130.312H223.662V129.558H254.517C256.806 129.558 258.668 131.42 258.668 133.71V148.069Z" fill="#2E4882"/>
<path d="M258.668 155.609H257.914V163.914H258.668V155.609Z" fill="#2E4882"/>
<path d="M188.675 129.558H168.907V130.312H188.675V129.558Z" fill="#2E4882"/>
<path d="M260.685 54.8915C245.798 50.86 230.464 59.6646 226.432 74.5552C222.403 89.4421 231.204 104.782 246.096 108.808C260.983 112.837 276.323 104.036 280.349 89.1422C284.378 74.2571 275.577 58.923 260.685 54.8915ZM275.091 87.7236C273.521 93.5167 269.789 98.3546 264.578 101.343C259.374 104.333 253.317 105.119 247.518 103.55C235.557 100.31 228.456 87.9445 231.696 75.9774C233.263 70.1843 236.99 65.3447 242.203 62.3565C247.226 59.4725 253.046 58.6411 258.656 59.9969C258.86 60.0472 259.06 60.101 259.263 60.1549C271.032 63.3352 278.084 75.3543 275.24 87.1274C275.193 87.3249 275.143 87.5243 275.091 87.7236Z" fill="#FCC659"/>
<path d="M275.24 87.1274C275.193 87.3267 275.145 87.5242 275.091 87.7236C273.521 93.5185 269.79 98.3563 264.578 101.344C259.374 104.334 253.317 105.121 247.517 103.551C235.555 100.312 228.453 87.9462 231.692 75.9792C233.262 70.1843 236.988 65.3465 242.199 62.3565C247.224 59.4743 253.044 58.641 258.656 59.9986C258.859 60.0471 259.058 60.101 259.261 60.1567C271.032 63.3352 278.086 75.3525 275.24 87.1274Z" fill="#F49B51"/>
<path d="M247.969 98.227L248.964 94.1147C246.611 93.5042 244.347 92.1807 243.167 90.8195L244.803 88.327C246.033 89.6576 247.964 90.9434 250.242 91.4947C253.132 92.1932 255.49 90.9973 256.048 88.6771C256.59 86.4378 255.337 84.6708 252.62 82.7224C248.861 80.0898 246.75 77.5972 247.606 74.056C248.421 70.6781 251.444 68.6938 255.337 68.9883L256.33 64.876L258.853 65.4865L257.9 69.4354C260.324 70.1071 261.834 71.1612 262.849 72.1381L261.18 74.5785C260.444 73.8836 258.991 72.5852 256.386 71.9567C253.252 71.1989 251.618 72.7863 251.225 74.4151C250.713 76.5323 251.963 77.9546 255.152 80.2747C258.93 82.9971 260.536 85.6261 259.661 89.2482C258.884 92.4644 255.917 94.9354 251.557 94.6139L250.535 98.8466L247.969 98.227Z" fill="#FCC659"/>
<path d="M275.664 81.4456C275.66 81.257 275.651 81.0684 275.644 80.8781C275.358 74.469 272.327 68.5178 267.324 64.5132L267.706 64.0374C272.844 68.1515 275.96 74.2661 276.251 80.8134C276.262 81.0469 276.269 81.2408 276.272 81.4366L275.664 81.4456Z" fill="#2E4882"/>
<path d="M267.326 64.5133C263.305 61.2934 258.255 59.5713 253.108 59.6593L253.098 59.0505C258.386 58.9571 263.574 60.7296 267.708 64.0374L267.326 64.5133Z" fill="#2E4882"/>
<path d="M269.874 97.6578L269.436 97.2358C271.487 95.115 273.065 92.6691 274.132 89.9629L274.699 90.1874C273.604 92.9654 271.98 95.4795 269.874 97.6578Z" fill="#2E4882"/>
<path d="M275.938 65.9301C274.284 63.5848 272.289 61.5233 270.007 59.8011L270.4 59.2786C272.736 61.042 274.778 63.152 276.471 65.553L275.938 65.9301Z" fill="#2E4882"/>
<path d="M263.202 108.35L262.974 107.737C271.33 104.636 277.707 97.6542 280.032 89.0614C281.476 83.7226 281.297 78.1449 279.512 72.9354L280.131 72.7235C281.957 78.0587 282.142 83.7675 280.663 89.232C278.282 98.0277 271.756 105.175 263.202 108.35Z" fill="#2E4882"/>
<path d="M189.7 140.085L209.311 153.366L225.008 136.551L217.638 137.289C217.548 136.782 217.441 136.279 217.338 135.777L217.184 135.024C217.157 134.898 217.132 134.774 217.098 134.651L216.537 132.472C214.803 126.34 211.867 120.672 208.038 115.838C204.21 111.002 199.481 106.996 194.239 104.083C189.001 101.163 183.255 99.3565 177.505 98.7028C171.751 98.0348 165.936 98.5394 160.536 100.104C155.133 101.664 150.142 104.277 145.908 107.68C141.668 111.077 138.179 115.256 135.661 119.864C133.136 124.469 131.596 129.495 131.061 134.53C132.533 129.682 134.932 125.219 138.041 121.462C141.144 117.7 144.938 114.64 149.088 112.449C153.237 110.253 157.737 108.939 162.217 108.538C166.701 108.136 171.155 108.635 175.28 109.953C179.41 111.262 183.159 113.347 186.3 116.018C189.443 118.683 191.979 121.926 193.767 125.445C195.561 128.963 196.414 132.785 196.938 136.495C197.053 137.312 197.204 139.406 197.204 139.406L189.7 140.085Z" fill="#446BD0"/>
<path d="M236.498 64.6658C238.567 65.7164 239.989 67.329 240.962 69.3492C241.935 67.329 243.363 65.7074 245.432 64.6569C243.363 63.6064 241.935 61.9938 240.962 59.9735C239.989 61.9938 238.567 63.6153 236.498 64.6658Z" fill="#FFE6A6"/>
<path d="M256.497 103.079C257.699 103.69 258.526 104.627 259.09 105.802C259.656 104.627 260.486 103.686 261.689 103.074C260.486 102.463 259.656 101.526 259.09 100.351C258.526 101.526 257.699 102.469 256.497 103.079Z" fill="#FFE6A6"/>
<path d="M174.429 48.9366C175.901 49.6855 176.918 50.8348 177.609 52.2732C178.302 50.8348 179.32 49.6783 180.793 48.9294C179.32 48.1806 178.3 47.0313 177.609 45.5929C176.918 47.0331 175.903 48.1878 174.429 48.9366Z" fill="#FFE6A6"/>
<path d="M86.3547 107.032C87.5435 107.635 88.3606 108.562 88.9191 109.722C89.4794 108.562 90.3 107.63 91.4871 107.026C90.2983 106.423 89.4776 105.496 88.9191 104.336C88.3588 105.496 87.5417 106.43 86.3547 107.032Z" fill="#FFE6A6"/>
<path d="M169.129 54.4892C169.986 54.9237 170.575 55.5918 170.977 56.4286C171.379 55.5936 171.972 54.922 172.827 54.4856C171.97 54.0492 171.379 53.383 170.977 52.5461C170.575 53.3812 169.986 54.0546 169.129 54.4892Z" fill="#FFE6A6"/>
<path d="M12.6761 139.533L12.1176 139.745C7.95864 128.784 8.61771 116.933 14.1954 102.452L14.7521 102.666C9.23006 117.002 8.57101 128.716 12.6761 139.533Z" fill="#2E4882"/>
<path d="M10.9667 148.018L10.4603 148.331C-1.51031 128.972 5.47523 109.041 13.8884 92.098L14.4218 92.3638C6.0822 109.161 -0.849444 128.91 10.9667 148.018Z" fill="#2E4882"/>
<path d="M265.097 27.1126C255.495 15.1204 245.708 8.65024 234.298 6.74492L234.396 6.15771C245.961 8.08637 255.865 14.6266 265.562 26.7409L265.097 27.1126Z" fill="#2E4882"/>
<path d="M274.162 32.0187C263.856 16.3524 250.291 0.413153 227.828 0.993188L227.813 0.39699C250.566 -0.188431 264.262 15.8873 274.66 31.6919L274.162 32.0187Z" fill="#2E4882"/>
<path d="M193.399 125.632C191.616 122.123 189.068 118.907 186.033 116.336C182.921 113.689 179.159 111.62 175.156 110.35C171.069 109.045 166.606 108.562 162.257 108.953C160.102 109.147 157.941 109.555 155.833 110.165L155.602 109.364C157.76 108.738 159.974 108.319 162.183 108.122C166.644 107.719 171.218 108.217 175.409 109.555C179.516 110.857 183.377 112.981 186.573 115.698C189.691 118.341 192.307 121.646 194.142 125.253L193.399 125.632Z" fill="#2E4882"/>
<path d="M138.364 121.726L137.721 121.197C140.796 117.469 144.66 114.315 148.896 112.081L149.286 112.819C145.145 115.001 141.368 118.083 138.364 121.726Z" fill="#2E4882"/>
<path d="M216.137 132.584C214.452 126.625 211.536 120.922 207.711 116.097C203.967 111.365 199.239 107.337 194.04 104.447C188.958 101.614 183.226 99.7713 177.459 99.1176L177.555 98.2898C183.429 98.956 189.268 100.833 194.446 103.718C199.74 106.66 204.556 110.761 208.366 115.579C212.262 120.491 215.226 126.293 216.941 132.357L216.137 132.584Z" fill="#2E4882"/>
<path d="M209.373 153.91L194.45 143.804L194.917 143.112L209.25 152.82L220.946 140.291L221.555 140.86L209.373 153.91Z" fill="#2E4882"/>
</g>
</svg>
