<svg width="19" height="37" viewBox="0 0 19 37" fill="none" xmlns="http://www.w3.org/2000/svg">
<path d="M17.7018 19.8244L10.8363 23.7888L7.17775 21.6769L4.86322 20.3413L3.36732 19.4762C1.32495 18.2989 0.134981 16.2123 0.010498 14.0243C0.0273771 14.2881 0.0611374 14.5518 0.111775 14.8134C0.122324 14.8809 0.134977 14.9484 0.151856 15.0139C0.164516 15.0814 0.179285 15.1468 0.198274 15.2122C0.213043 15.2797 0.229922 15.3451 0.251021 15.4105C0.2679 15.478 0.286888 15.5434 0.310097 15.6088C0.329086 15.6764 0.350191 15.7418 0.375509 15.8051C0.394498 15.8662 0.417702 15.9274 0.44302 15.9886C0.44302 15.9971 0.44724 16.0034 0.44935 16.0097C0.573833 16.3325 0.725749 16.6511 0.902979 16.9592L0.905084 16.9571L6.73679 13.5918L10.3677 15.6553L13.2561 17.2967L17.7018 19.8244Z" fill="url(#paint0_linear_59_26)"/>
<path d="M17.704 3.36104C17.704 5.69034 16.495 7.95424 14.3345 9.20329L6.73895 13.5897L6.73685 13.5918L0.90514 16.9571C0.72791 16.649 0.575998 16.3326 0.449405 16.0098C0.447295 16.0034 0.443076 15.9971 0.443076 15.9887C0.419867 15.9275 0.396663 15.8663 0.375565 15.8051C0.350246 15.7418 0.329141 15.6764 0.310152 15.6089C0.289054 15.5435 0.270065 15.476 0.251076 15.4106C0.232087 15.3451 0.215208 15.2776 0.198329 15.2122C0.18145 15.1468 0.166681 15.0793 0.151911 15.0139C0.137142 14.9464 0.124489 14.881 0.11183 14.8135C0.0506433 14.4801 0.0147733 14.1446 0.00422388 13.8092C0.002114 13.7374 0 13.6657 0 13.5939C0 13.537 4.12095e-06 13.4779 0.00422388 13.4209C0.00633376 13.3534 0.00844544 13.2859 0.0126652 13.2205C0.132928 11.0262 1.325 8.93533 3.36948 7.7538L16.801 0C17.4128 1.06127 17.704 2.21748 17.704 3.36104Z" fill="url(#paint1_linear_59_26)"/>
<path d="M18.6083 23.1861C18.6083 23.6102 18.5682 24.0343 18.488 24.4479C18.1357 26.3067 17.0048 28.0051 15.2388 29.0263L1.80732 36.7801C1.19546 35.7188 0.904297 34.5605 0.904297 33.4169C0.904297 31.0897 2.11326 28.8258 4.27377 27.5768L10.8376 23.7875L17.7031 19.823C18.315 20.8843 18.6083 22.0426 18.6083 23.1861Z" fill="url(#paint2_linear_59_26)"/>
<path d="M10.3679 15.6553C9.47354 16.4317 8.57663 17.206 7.68226 17.9803C6.94591 18.6196 5.93106 19.8645 4.86346 20.3413L3.36756 19.4762C1.3252 18.2989 0.135225 16.2123 0.0107422 14.0243C0.0276212 14.2881 0.0613751 14.5518 0.112012 14.8134C0.122562 14.8809 0.135221 14.9484 0.1521 15.0139C0.16476 15.0814 0.179529 15.1468 0.198518 15.2122C0.213287 15.2797 0.230166 15.3451 0.251265 15.4105C0.268144 15.478 0.287133 15.5434 0.310341 15.6088C0.32933 15.6764 0.350428 15.7418 0.375747 15.8051C0.394736 15.8662 0.417946 15.9274 0.443265 15.9886C0.443265 15.9971 0.447484 16.0034 0.449594 16.0097C0.574077 16.3325 0.725987 16.6511 0.903217 16.9592L0.905329 16.9571L6.73703 13.5918L10.3679 15.6553Z" fill="url(#paint3_linear_59_26)"/>
<path d="M17.7028 19.8238L10.8372 23.7882L7.17871 21.6762C9.10503 20.0833 11.1368 18.619 13.2573 17.2961L17.7028 19.8238Z" fill="url(#paint4_linear_59_26)"/>
<defs>
<linearGradient id="paint0_linear_59_26" x1="0.0104558" y1="18.6904" x2="17.7019" y2="18.6904" gradientUnits="userSpaceOnUse">
<stop stop-color="#9585F7"/>
<stop offset="0.2635" stop-color="#6236BF"/>
<stop offset="0.6824" stop-color="#691A68"/>
<stop offset="0.8645" stop-color="#461B6A"/>
<stop offset="1" stop-color="#2C1C6C"/>
</linearGradient>
<linearGradient id="paint1_linear_59_26" x1="0" y1="8.47861" x2="17.704" y2="8.47861" gradientUnits="userSpaceOnUse">
<stop stop-color="#858AF7"/>
<stop offset="0.2635" stop-color="#4936BF"/>
<stop offset="0.6824" stop-color="#691A68"/>
<stop offset="0.8645" stop-color="#461B6A"/>
<stop offset="1" stop-color="#7367F0"/>
</linearGradient>
<linearGradient id="paint2_linear_59_26" x1="0.904318" y1="28.3016" x2="18.6083" y2="28.3016" gradientUnits="userSpaceOnUse">
<stop stop-color="#7367F0"/>
<stop offset="0.2635" stop-color="#6C61E0"/>
<stop offset="0.6824" stop-color="#80067E"/>
<stop offset="0.8645" stop-color="#461B6A"/>
<stop offset="1" stop-color="#2C1C6C"/>
</linearGradient>
<linearGradient id="paint3_linear_59_26" x1="1.22069" y1="12.2438" x2="12.716" y2="23.3661" gradientUnits="userSpaceOnUse">
<stop/>
<stop offset="0.4548" stop-opacity="0"/>
</linearGradient>
<linearGradient id="paint4_linear_59_26" x1="16.8088" y1="23.7235" x2="5.55101" y2="16.06" gradientUnits="userSpaceOnUse">
<stop stop-color="#253C76" stop-opacity="0.72"/>
<stop offset="0.4548" stop-opacity="0"/>
</linearGradient>
</defs>
</svg>
